<svg xmlns="http://www.w3.org/2000/svg" width="24" height="24" viewBox="0 0 24 24" fill="none" stroke="currentColor" stroke-width="1.75" stroke-linecap="round" stroke-linejoin="round" role="img" class="poi-icon poi-icon--ria">
  <title>Ria</title>
  <!-- hills on the banks -->
  <path d="M1.5 8Q3.5 5 5.5 7"/>
  <path d="M16.5 6.5Q18.5 4 20.5 7"/>
  <!-- winding estuary banks -->
  <path d="M6 3C4.5 7 8 9.5 6.5 13 5.5 16 7.5 18.5 6.5 21"/>
  <path d="M13 3c1.5 4-2 6.5-.5 10 1 3-1 5.5 0 8.7"/>
  <!-- water ripples (accent) -->
  <path d="M9 6q.9-.6 1.8 0M9 10q.9-.6 1.8 0M8.6 14q.9-.6 1.8 0M8.8 18q.9-.6 1.8 0" stroke="var(--poi-accent, #1f97a8)"/>
</svg>
